<?xml version="1.0" encoding="UTF-8"?>
<svg id="katman_2" data-name="katman 2" xmlns="http://www.w3.org/2000/svg" viewBox="0 0 891.16 516.43">
  <defs>
    <style>
      .cls-1 {
        fill: none;
      }

      .cls-2 {
        fill: #fafafa;
      }

      .cls-3 {
        fill: #fbb03b;
      }
    </style>
  </defs>
  <g id="katman_1" data-name="katman 1">
    <g>
      <rect class="cls-1" width="891.16" height="516.43"/>
      <path class="cls-3" d="M188.96,369.92l18.49,35.97,16.51-35.97h20v67.93h-17v-36.46c0-.63,3.19-5.06-.85-.85l-13.63,26.34c-2.21,1.97-8.32.81-11.36.82l-14.67-27.8c-3.18-2.8-.49,2.16-.49,2.49v35.47h-17v-67.93h20Z"/>
      <path class="cls-3" d="M384.46,369.92c22.79,3.06,30.73,32.79,7.5,40.97,4.46,9.04,11.13,17.76,16,26.96h-19.5c-1.96,0-13.06-22.85-16.19-23.78-1.66-.5-3.59-.13-5.31-.19v23.98h-18v-67.93c11.08,1.07,24.75-1.44,35.5,0ZM366.96,398.9h14.5c.89,0,4.92-3.41,5.31-4.71,3.34-11.22-12.84-10.78-19.81-10.27v14.99Z"/>
      <path class="cls-3" d="M332.96,437.86h-20c-.71,0-.79-10.39-6.44-11.04-2.8-.32-20.15-.41-21.92.19-2.55.87-3.21,10.85-5.14,10.85h-18.5l26.46-68c4.03.84,17.74-1.33,20.07,1.04l25.47,66.96ZM288.96,412.88h16l-8.49-21.99-7.51,21.99Z"/>
      <polygon class="cls-2" points="728.96 369.92 728.96 384.91 699.96 384.91 699.96 395.9 724.96 395.9 724.96 410.88 699.96 410.88 699.96 422.87 730.96 422.87 730.96 437.86 680.96 437.86 680.96 369.92 728.96 369.92"/>
      <path class="cls-2" d="M547.95,376.94c.88,1.27-9.88,10.68-10.64,10.82-2.24.43-10.62-7.68-19.1-4.09-3.67,1.55-4.46,5.63-1.53,8.28,8.6,7.78,31.13,5.51,33.06,24.72,2.69,26.8-44.91,28.91-56.77,9.7,2.95-.94,8.85-9,10.63-9.34.96-.19,10.91,6.1,14.9,6.86,4.95.94,14.47.94,12.29-6.31-2.02-6.72-32.54-7.65-34.75-25.26-2.83-22.51,24.61-27.25,41.18-21.17,1.42.52,10.37,5.29,10.72,5.79Z"/>
      <path class="cls-2" d="M766.72,369.19c11.49-1.66,23.31.7,32.24,8.27.26,1.06-8.56,10.06-9.7,10.35-1.78.45-20.17-10.99-23.13-1.19-2.38,7.87,15.5,10.49,21.21,13.41,11.47,5.87,18.54,17.94,10.06,29.78-9,12.56-33.52,11.1-45.35,3.47-11.82-7.63-4.83-8.62,2.62-16.29,5.46,1.51,8.83,5.95,14.88,6.8,4.85.68,16.67.37,11.88-6.83-4.41-6.62-24.46-7.2-31.48-17.55-9.16-13.51,2.51-28.16,16.77-30.22Z"/>
      <path class="cls-3" d="M116.26,391.62c2.52,3.05,16.97,6.56,22,9.47,9.99,5.77,14.39,15.03,9.43,26.02-6.42,14.26-31.37,13.91-43.63,8.14-2.6-1.22-11.84-7.02-9.98-10.25.31-.54,8.5-6.06,9.51-7.97,5.45,2.16,9.71,6.2,15.85,6.84,4.89.51,14.57.23,11.02-7-3.17-6.45-32.37-7.25-34.43-24.56-3.04-25.61,37.65-30.17,51.87-14.78.22,1.06-8.52,9.98-9.66,10.27-2.43.62-11.59-7.7-20.04-4.13-3.45,1.46-4.38,5.01-1.96,7.95Z"/>
      <path class="cls-3" d="M480.96,369.92v15.98h-21v51.95h-19v-50.45c0-.3,1.27-.77,1-1.5h-22v-15.98h61Z"/>
      <path class="cls-2" d="M665.96,369.92v14.49c0,.11-1.39,1.5-1.5,1.5h-20.5c-.27.73,1,1.19,1,1.5v50.45h-19v-51.95h-21v-15.98h61Z"/>
      <rect class="cls-2" x="567.96" y="369.92" width="19" height="67.93"/>
      <g>
        <path class="cls-2" d="M534.92,89.57c-7.57-3.44-15.39-6.44-23.42-8.98l14.15,9.47c3.38,1.52,6.04-.87,9.27-.5Z"/>
        <path class="cls-2" d="M373.23,85.11l66.74,110.98,82.98-97.88-35.38-23.61c-12.57-2.37-25.52-3.62-38.78-3.62-26.65,0-52.13,5.01-75.56,14.14Z"/>
        <path class="cls-2" d="M359.95,94.19l-.48-3.13c-2.2,1.04-4.37,2.13-6.52,3.24,2.31-.24,4.65-.32,7.01-.11Z"/>
        <path class="cls-2" d="M316.46,123.16h17.5l-5.45-13.97c-4.89,3.47-9.62,7.14-14.18,11.01.79,1.58,1.8,2.96,2.13,2.96Z"/>
        <path class="cls-2" d="M342.45,122.15c2.59-2.8,19.8-15.35,20.1-17.42.15-1.02-.82-5.04-2.04-5.28l-22.01,3.11c-1.26.79-2.51,1.59-3.76,2.41l7.71,17.19Z"/>
        <path class="cls-2" d="M404.51,205.03c-7.47-.72-26.9-.93-34.11,0-1.26.16-1.91.18-3.03.97-3.19,2.27-11.35,39.57-12.42,46.03l53.55-25.91c2.04-2.19,1.92-13.27,1.49-16.59-.53-4.05-1.76-4.15-5.49-4.51Z"/>
        <path class="cls-2" d="M356.96,176.1l-7.01-16.97c-.85-.62-9.89,6.77-9.58,8.03,1.17,1.42,3.85,8.19,4.79,8.74,1.87,1.09,9.08-.34,11.8.2Z"/>
        <path class="cls-2" d="M333.97,155.13c2.28,7.43,4.96,7.3,8.99,1.01l-8.99-1.01Z"/>
        <path class="cls-2" d="M332.95,129.17l-12.99,1.48,4.98,6.49c.71-3.54,6.18-4.87,8.02-7.98Z"/>
        <path class="cls-2" d="M344.95,149.13l-6.01-14.98c-1.2-.87-10.82,6.41-11.51,7.97-.5,1.14,2.38,6.01,3.46,6.49,1.38.61,10.94-1.74,14.06.51Z"/>
        <path class="cls-2" d="M502.95,210.08c-2.36-3.42,4.15-13.99,6.51-13.99h23.5v-81.92l-79.5,94.91h48c.21,0,1.14,1.5,1.49,1Z"/>
        <path class="cls-2" d="M555.96,247.04h-73.5c-.94,0-7.22,8.54-8.5,9.99h82v-9.99Z"/>
        <path class="cls-2" d="M657.07,279.26c0-82.88-48.41-154.45-118.5-187.99.31.25.62.54.94.86,4.42,4.5,1.48,7.76,1.4,12.5-.54,30.46.49,61,.04,91.45h21.5c1.59,0,6.72,5.23,6.44,7.55-1.22,17.58,1.81,37.69.12,54.95-.3,3.01-3.77,8.43-6.56,8.43h-71.5c1.49,2.97,1.49,6.02,0,8.99h90.5c.39,0,6.24,2.35,7.18,2.82,16.42,8.18,16.11,30.47,2.32,41.13l12.41,1.24h49.48c2.77-13.55,4.23-27.57,4.23-41.94Z"/>
        <path class="cls-2" d="M381.49,162.09c2.51,11.27,1.84,23.98,8.9,33.67,6.86-.62,21.77-2.52,27.1,2.29.66.6,3.46,5.19,3.46,5.53v16.48l14.55-16.01.07-1.99-70.65-113.36c3.96,24.86,11.11,48.88,16.56,73.38Z"/>
        <path class="cls-2" d="M367.96,176.1c1.44-.8,8.68-.67,9.01-.99.32-.31-.23-5.65-.01-6.99l-8.99,7.98Z"/>
        <path class="cls-2" d="M364.94,136.6c.83-.8,2.82-1.42,2.93-1.59.4-.7-1.62-5.15-.9-6.85l-21,2.01,7.5,16.96c3.77-3.61,7.72-6.9,11.48-10.53Z"/>
        <path class="cls-2" d="M363.46,112.18c-4.67,3.7-9.96,7.14-13.51,11.97l15-.98-1.5-10.99Z"/>
        <polygon class="cls-2" points="358.96 150.13 371.95 149.13 369.46 140.15 358.96 150.13"/>
        <path class="cls-2" d="M314.96,318.96c-11.26-11.4-10.69-28.23,2.5-37.95,2.35-1.73,9.36-5,12-5h67.5v-8.99h-48.5c-3.17-.56-7.08-4.84-6.56-8.43l12.38-52.31c-13.92-27.83-29.45-54.84-44.53-82.09-42.5,38.13-69.24,93.47-69.24,155.06,0,14.37,1.46,28.39,4.22,41.94h44.05l1.69-.22,24.49-2.02Z"/>
        <path class="cls-2" d="M356.97,199.09c2.98-1.66,5.24-3.73,8.98-3l-4.01-9.98c-7.09,2.75-7.72,6.28-4.98,12.98Z"/>
        <path class="cls-2" d="M356.96,156.14l6.01,14.98c.99.88,11.05-8.91,11.53-10.03.52-1.19-.19-5.42-.66-5.84-1.67-1.46-13.84,1.27-16.88.89Z"/>
        <path class="cls-2" d="M368.96,182.11l5.01,12.98c1.17.84,6.55-4.53,6.65-5.47.05-.44-2.41-8.15-2.78-8.39-1.66-1.08-6.64,1.31-8.88.88Z"/>
        <path class="cls-2" d="M534.92,89.57c1.23.56,2.45,1.13,3.66,1.71-1.33-1.1-2.53-1.58-3.66-1.71Z"/>
      </g>
    </g>
  </g>
</svg>